<svg width="750" height="133" viewBox="0 0 750 133" fill="none" xmlns="http://www.w3.org/2000/svg">
<mask id="path-1-outside-1_2_3" maskUnits="userSpaceOnUse" x="-3" y="-3" width="755" height="139" fill="black">
<rect fill="white" x="-3" y="-3" width="755" height="139"/>
<path d="M0.0328122 115.488L2.45 104.255L10.4125 105.18L29.5367 15.175L21.0055 16.9523L23.6359 4.65312L44.2531 0.316402L63.9461 2.5914L61.6 13.8242L53.5664 12.9L34.4422 102.905L42.9734 101.127L40.4141 113.355L19.7258 117.763L0.0328122 115.488ZM86.7672 43.3281L70.9133 117.763L49.5141 108.237L66.7898 27.1187L80.0133 33.0195L107.811 27.1187L129.21 36.7164L112.005 117.763L90.5352 108.237L105.18 39.418L86.7672 43.3281ZM144.709 132.693L123.238 123.095L139.234 47.7359H133.334L135.751 36.2187H141.723L147.268 9.77187L168.738 0.245308L183.597 6.92812L181.322 17.6633L170.16 12.6867L165.113 36.2187H171.084L168.667 47.7359H162.695L144.709 132.693ZM206.489 9.77187L202.792 27.1187L181.393 17.5922L185.09 0.245308L206.489 9.77187ZM200.802 36.7164L183.526 117.763L162.127 108.237L179.331 27.1187L200.802 36.7164ZM233.789 43.3281L217.935 117.763L196.536 108.237L213.812 27.1187L227.035 33.0195L254.833 27.1187L276.232 36.7164L259.027 117.763L237.557 108.237L252.202 39.418L233.789 43.3281ZM316.4 9.77187L312.703 27.1187L291.304 17.5922L295.001 0.245308L316.4 9.77187ZM310.713 36.7164L293.437 117.763L272.038 108.237L289.242 27.1187L310.713 36.7164ZM301.613 115.488L304.03 104.255L311.992 105.18L331.116 15.175L322.585 16.9523L325.216 4.65312L345.833 0.316402L365.526 2.5914L363.18 13.8242L355.146 12.9L336.022 102.905L344.553 101.127L341.994 113.355L321.305 117.763L301.613 115.488ZM430.79 36.7164L415.505 108.663L372.564 117.763L351.094 108.237L366.379 36.2898L409.391 27.1187L430.79 36.7164ZM375.123 105.535L393.537 101.554L406.76 39.418L388.347 43.3281L375.123 105.535ZM463.848 43.3281L447.995 117.763L426.595 108.237L443.871 27.1187L457.095 33.0195L484.892 27.1187L506.291 36.7164L489.087 117.763L467.616 108.237L482.262 39.418L463.848 43.3281ZM582.575 9.77187L578.878 27.1187L557.479 17.5922L561.176 0.245308L582.575 9.77187ZM576.888 36.7164L559.612 117.763L538.213 108.237L555.417 27.1187L576.888 36.7164ZM609.875 43.3281L594.021 117.763L572.622 108.237L589.898 27.1187L603.121 33.0195L630.919 27.1187L652.318 36.7164L635.113 117.763L613.643 108.237L628.288 39.418L609.875 43.3281ZM725.829 36.7164L721.066 59.182L696.538 64.3719L701.799 39.418L685.448 42.9016L672.153 105.535L688.505 102.052L692.699 82.1453L717.298 76.9555L710.473 109.09L669.523 117.763L648.123 108.237L665.328 27.1187L677.983 32.8062L704.43 27.1187L725.829 36.7164ZM749.574 94.1602L744.455 117.763L723.056 108.237L728.033 84.5625L749.574 94.1602Z"/>
</mask>
<path d="M0.0328122 115.488L2.45 104.255L10.4125 105.18L29.5367 15.175L21.0055 16.9523L23.6359 4.65312L44.2531 0.316402L63.9461 2.5914L61.6 13.8242L53.5664 12.9L34.4422 102.905L42.9734 101.127L40.4141 113.355L19.7258 117.763L0.0328122 115.488ZM86.7672 43.3281L70.9133 117.763L49.5141 108.237L66.7898 27.1187L80.0133 33.0195L107.811 27.1187L129.21 36.7164L112.005 117.763L90.5352 108.237L105.18 39.418L86.7672 43.3281ZM144.709 132.693L123.238 123.095L139.234 47.7359H133.334L135.751 36.2187H141.723L147.268 9.77187L168.738 0.245308L183.597 6.92812L181.322 17.6633L170.16 12.6867L165.113 36.2187H171.084L168.667 47.7359H162.695L144.709 132.693ZM206.489 9.77187L202.792 27.1187L181.393 17.5922L185.09 0.245308L206.489 9.77187ZM200.802 36.7164L183.526 117.763L162.127 108.237L179.331 27.1187L200.802 36.7164ZM233.789 43.3281L217.935 117.763L196.536 108.237L213.812 27.1187L227.035 33.0195L254.833 27.1187L276.232 36.7164L259.027 117.763L237.557 108.237L252.202 39.418L233.789 43.3281ZM316.4 9.77187L312.703 27.1187L291.304 17.5922L295.001 0.245308L316.4 9.77187ZM310.713 36.7164L293.437 117.763L272.038 108.237L289.242 27.1187L310.713 36.7164ZM301.613 115.488L304.03 104.255L311.992 105.18L331.116 15.175L322.585 16.9523L325.216 4.65312L345.833 0.316402L365.526 2.5914L363.18 13.8242L355.146 12.9L336.022 102.905L344.553 101.127L341.994 113.355L321.305 117.763L301.613 115.488ZM430.79 36.7164L415.505 108.663L372.564 117.763L351.094 108.237L366.379 36.2898L409.391 27.1187L430.79 36.7164ZM375.123 105.535L393.537 101.554L406.76 39.418L388.347 43.3281L375.123 105.535ZM463.848 43.3281L447.995 117.763L426.595 108.237L443.871 27.1187L457.095 33.0195L484.892 27.1187L506.291 36.7164L489.087 117.763L467.616 108.237L482.262 39.418L463.848 43.3281ZM582.575 9.77187L578.878 27.1187L557.479 17.5922L561.176 0.245308L582.575 9.77187ZM576.888 36.7164L559.612 117.763L538.213 108.237L555.417 27.1187L576.888 36.7164ZM609.875 43.3281L594.021 117.763L572.622 108.237L589.898 27.1187L603.121 33.0195L630.919 27.1187L652.318 36.7164L635.113 117.763L613.643 108.237L628.288 39.418L609.875 43.3281ZM725.829 36.7164L721.066 59.182L696.538 64.3719L701.799 39.418L685.448 42.9016L672.153 105.535L688.505 102.052L692.699 82.1453L717.298 76.9555L710.473 109.09L669.523 117.763L648.123 108.237L665.328 27.1187L677.983 32.8062L704.43 27.1187L725.829 36.7164ZM749.574 94.1602L744.455 117.763L723.056 108.237L728.033 84.5625L749.574 94.1602Z" fill="url(#paint0_linear_2_3)"/>
<path d="M0.0328121 115.488L-1.92243 115.068L-2.38608 117.222L-0.196708 117.475L0.0328121 115.488ZM2.45 104.255L2.68059 102.269L0.876781 102.059L0.494758 103.835L2.45 104.255ZM10.4125 105.18L10.1819 107.166L11.9904 107.376L12.3688 105.595L10.4125 105.18ZM29.5367 15.175L31.493 15.5907L32.1303 12.5917L29.1288 13.217L29.5367 15.175ZM21.0055 16.9523L19.0497 16.5341L18.4076 19.5365L21.4134 18.9103L21.0055 16.9523ZM23.6359 4.65312L23.2243 2.69595L21.9521 2.96355L21.6802 4.23483L23.6359 4.65312ZM44.2531 0.316402L44.4826 -1.67039L44.1596 -1.7077L43.8414 -1.64077L44.2531 0.316402ZM63.9461 2.5914L65.9039 3.0003L66.3517 0.856005L64.1756 0.604614L63.9461 2.5914ZM61.6 13.8242L61.3714 15.8111L63.1846 16.0197L63.5578 14.2331L61.6 13.8242ZM53.5664 12.9L53.795 10.9131L51.9881 10.7052L51.6101 12.4843L53.5664 12.9ZM34.4422 102.905L32.4859 102.489L31.8486 105.488L34.8501 104.863L34.4422 102.905ZM42.9734 101.127L44.931 101.537L45.557 98.5462L42.5655 99.1694L42.9734 101.127ZM40.4141 113.355L40.8308 115.312L42.1048 115.04L42.3716 113.765L40.4141 113.355ZM19.7258 117.763L19.4963 119.75L19.8219 119.788L20.1425 119.719L19.7258 117.763ZM1.98805 115.909L4.40524 104.676L0.494758 103.835L-1.92243 115.068L1.98805 115.909ZM2.21941 106.242L10.1819 107.166L10.6431 103.193L2.68059 102.269L2.21941 106.242ZM12.3688 105.595L31.493 15.5907L27.5804 14.7593L8.45617 104.764L12.3688 105.595ZM29.1288 13.217L20.5976 14.9944L21.4134 18.9103L29.9446 17.133L29.1288 13.217ZM22.9612 17.3706L25.5917 5.07141L21.6802 4.23483L19.0497 16.5341L22.9612 17.3706ZM24.0476 6.61029L44.6648 2.27357L43.8414 -1.64077L23.2243 2.69595L24.0476 6.61029ZM44.0236 2.30319L63.7166 4.57819L64.1756 0.604614L44.4826 -1.67039L44.0236 2.30319ZM61.9883 2.1825L59.6422 13.4153L63.5578 14.2331L65.9039 3.0003L61.9883 2.1825ZM61.8286 11.8373L53.795 10.9131L53.3378 14.8869L61.3714 15.8111L61.8286 11.8373ZM51.6101 12.4843L32.4859 102.489L36.3985 103.32L55.5227 13.3157L51.6101 12.4843ZM34.8501 104.863L43.3813 103.085L42.5655 99.1694L34.0343 100.947L34.8501 104.863ZM41.0159 100.718L38.4565 112.946L42.3716 113.765L44.931 101.537L41.0159 100.718ZM39.9973 111.399L19.309 115.807L20.1425 119.719L40.8308 115.312L39.9973 111.399ZM19.9553 115.776L0.262332 113.501L-0.196708 117.475L19.4963 119.75L19.9553 115.776ZM86.7672 43.3281L86.3517 41.3717L85.0816 41.6415L84.8111 42.9115L86.7672 43.3281ZM70.9133 117.763L70.0999 119.59L72.3551 120.594L72.8694 118.18L70.9133 117.763ZM49.5141 108.237L47.5579 107.82L47.2204 109.405L48.7007 110.064L49.5141 108.237ZM66.7898 27.1187L67.6049 25.2923L65.3484 24.2854L64.8337 26.7021L66.7898 27.1187ZM80.0133 33.0195L79.1983 34.8459L79.7923 35.111L80.4286 34.9759L80.0133 33.0195ZM107.811 27.1187L108.629 25.2939L108.034 25.0268L107.396 25.1623L107.811 27.1187ZM129.21 36.7164L131.167 37.1317L131.502 35.5523L130.029 34.8915L129.21 36.7164ZM112.005 117.763L111.194 119.591L113.45 120.592L113.962 118.179L112.005 117.763ZM90.5352 108.237L88.579 107.82L88.2413 109.407L89.724 110.065L90.5352 108.237ZM105.18 39.418L107.137 39.8343L107.778 36.8218L104.765 37.4616L105.18 39.418ZM84.8111 42.9115L68.9572 117.347L72.8694 118.18L88.7233 43.7448L84.8111 42.9115ZM71.7267 115.936L50.3275 106.41L48.7007 110.064L70.0999 119.59L71.7267 115.936ZM51.4702 108.653L68.746 27.5353L64.8337 26.7021L47.5579 107.82L51.4702 108.653ZM65.9748 28.9452L79.1983 34.8459L80.8283 31.1931L67.6049 25.2923L65.9748 28.9452ZM80.4286 34.9759L108.226 29.0752L107.396 25.1623L79.598 31.0631L80.4286 34.9759ZM106.992 28.9436L128.392 38.5413L130.029 34.8915L108.629 25.2939L106.992 28.9436ZM127.254 36.3011L110.049 117.348L113.962 118.179L131.167 37.1317L127.254 36.3011ZM112.817 115.935L91.3463 106.409L89.724 110.065L111.194 119.591L112.817 115.935ZM92.4914 108.653L107.137 39.8343L103.224 39.0017L88.579 107.82L92.4914 108.653ZM104.765 37.4616L86.3517 41.3717L87.1826 45.2845L105.596 41.3743L104.765 37.4616ZM144.709 132.693L143.892 134.519L146.152 135.529L146.665 133.107L144.709 132.693ZM123.238 123.095L121.282 122.68L120.946 124.261L122.422 124.921L123.238 123.095ZM139.234 47.7359L141.191 48.1512L141.703 45.7359H139.234V47.7359ZM133.334 47.7359L131.376 47.3251L130.87 49.7359H133.334V47.7359ZM135.751 36.2187V34.2187H134.127L133.793 35.8079L135.751 36.2187ZM141.723 36.2187V38.2188H143.347L143.68 36.6292L141.723 36.2187ZM147.268 9.77187L146.457 7.94375L145.521 8.35911L145.311 9.36144L147.268 9.77187ZM168.738 0.245308L169.559 -1.5787L168.744 -1.94518L167.927 -1.58282L168.738 0.245308ZM183.597 6.92812L185.553 7.34275L185.888 5.76546L184.417 5.10411L183.597 6.92812ZM181.322 17.6633L180.507 19.4899L182.766 20.4969L183.278 18.0779L181.322 17.6633ZM170.16 12.6867L170.975 10.8601L168.722 9.85568L168.205 12.2673L170.16 12.6867ZM165.113 36.2187L163.157 35.7993L162.638 38.2188H165.113V36.2187ZM171.084 36.2187L173.042 36.6296L173.548 34.2187H171.084V36.2187ZM168.667 47.7359V49.7359H170.291L170.625 48.1467L168.667 47.7359ZM162.695 47.7359V45.7359H161.074L160.739 47.3217L162.695 47.7359ZM145.525 130.867L124.054 121.269L122.422 124.921L143.892 134.519L145.525 130.867ZM125.195 123.511L141.191 48.1512L137.278 47.3207L121.282 122.68L125.195 123.511ZM139.234 45.7359H133.334V49.7359H139.234V45.7359ZM135.291 48.1467L137.708 36.6296L133.793 35.8079L131.376 47.3251L135.291 48.1467ZM135.751 38.2188H141.723V34.2187H135.751V38.2188ZM143.68 36.6292L149.225 10.1823L145.311 9.36144L139.765 35.8083L143.68 36.6292ZM148.079 11.6L169.549 2.07343L167.927 -1.58282L146.457 7.94375L148.079 11.6ZM167.918 2.06931L182.777 8.75213L184.417 5.10411L169.559 -1.5787L167.918 2.06931ZM181.64 6.51349L179.365 17.2486L183.278 18.0779L185.553 7.34275L181.64 6.51349ZM182.136 15.8366L170.975 10.8601L169.346 14.5134L180.507 19.4899L182.136 15.8366ZM168.205 12.2673L163.157 35.7993L167.068 36.6382L172.116 13.1062L168.205 12.2673ZM165.113 38.2188H171.084V34.2187H165.113V38.2188ZM169.127 35.8079L166.71 47.3251L170.625 48.1467L173.042 36.6296L169.127 35.8079ZM168.667 45.7359H162.695V49.7359H168.667V45.7359ZM160.739 47.3217L142.752 132.279L146.665 133.107L164.652 48.1502L160.739 47.3217ZM206.489 9.77187L208.445 10.1887L208.783 8.60381L207.302 7.94475L206.489 9.77187ZM202.792 27.1187L201.979 28.9459L204.234 29.9497L204.748 27.5356L202.792 27.1187ZM181.393 17.5922L179.437 17.1753L179.099 18.7602L180.58 19.4193L181.393 17.5922ZM185.09 0.245308L185.903 -1.58181L183.648 -2.5857L183.134 -0.17156L185.09 0.245308ZM200.802 36.7164L202.758 37.1334L203.095 35.5509L201.618 34.8905L200.802 36.7164ZM183.526 117.763L182.712 119.59L184.967 120.594L185.482 118.18L183.526 117.763ZM162.127 108.237L160.17 107.822L159.834 109.405L161.313 110.064L162.127 108.237ZM179.331 27.1187L180.147 25.2929L177.888 24.283L177.375 26.7038L179.331 27.1187ZM204.533 9.355L200.836 26.7019L204.748 27.5356L208.445 10.1887L204.533 9.355ZM203.606 25.2916L182.206 15.7651L180.58 19.4193L201.979 28.9459L203.606 25.2916ZM183.349 18.0091L187.046 0.662176L183.134 -0.17156L179.437 17.1753L183.349 18.0091ZM184.276 2.07243L205.676 11.599L207.302 7.94475L185.903 -1.58181L184.276 2.07243ZM198.846 36.2995L181.57 117.346L185.482 118.18L202.758 37.1334L198.846 36.2995ZM184.339 115.936L162.94 106.41L161.313 110.064L182.712 119.59L184.339 115.936ZM164.083 108.652L181.288 27.5337L177.375 26.7038L160.17 107.822L164.083 108.652ZM178.515 28.9446L199.985 38.5423L201.618 34.8905L180.147 25.2929L178.515 28.9446ZM233.789 43.3281L233.374 41.3717L232.103 41.6415L231.833 42.9115L233.789 43.3281ZM217.935 117.763L217.122 119.59L219.377 120.594L219.891 118.18L217.935 117.763ZM196.536 108.237L194.58 107.82L194.242 109.405L195.723 110.064L196.536 108.237ZM213.812 27.1187L214.627 25.2923L212.37 24.2854L211.856 26.7021L213.812 27.1187ZM227.035 33.0195L226.22 34.8459L226.814 35.111L227.45 34.9759L227.035 33.0195ZM254.833 27.1187L255.651 25.2939L255.056 25.0268L254.418 25.1623L254.833 27.1187ZM276.232 36.7164L278.188 37.1317L278.524 35.5523L277.051 34.8915L276.232 36.7164ZM259.027 117.763L258.216 119.591L260.471 120.592L260.984 118.179L259.027 117.763ZM237.557 108.237L235.601 107.82L235.263 109.407L236.746 110.065L237.557 108.237ZM252.202 39.418L254.159 39.8343L254.8 36.8218L251.787 37.4616L252.202 39.418ZM231.833 42.9115L215.979 117.347L219.891 118.18L235.745 43.7448L231.833 42.9115ZM218.749 115.936L197.349 106.41L195.723 110.064L217.122 119.59L218.749 115.936ZM198.492 108.653L215.768 27.5353L211.856 26.7021L194.58 107.82L198.492 108.653ZM212.997 28.9452L226.22 34.8459L227.85 31.1931L214.627 25.2923L212.997 28.9452ZM227.45 34.9759L255.248 29.0752L254.418 25.1623L226.62 31.0631L227.45 34.9759ZM254.014 28.9436L275.414 38.5413L277.051 34.8915L255.651 25.2939L254.014 28.9436ZM274.276 36.3011L257.071 117.348L260.984 118.179L278.188 37.1317L274.276 36.3011ZM259.839 115.935L238.368 106.409L236.746 110.065L258.216 119.591L259.839 115.935ZM239.513 108.653L254.159 39.8343L250.246 39.0017L235.601 107.82L239.513 108.653ZM251.787 37.4616L233.374 41.3717L234.205 45.2845L252.618 41.3743L251.787 37.4616ZM316.4 9.77187L318.356 10.1887L318.694 8.60381L317.213 7.94475L316.4 9.77187ZM312.703 27.1187L311.89 28.9459L314.145 29.9497L314.659 27.5356L312.703 27.1187ZM291.304 17.5922L289.348 17.1753L289.01 18.7602L290.491 19.4193L291.304 17.5922ZM295.001 0.245308L295.814 -1.58181L293.559 -2.5857L293.045 -0.17156L295.001 0.245308ZM310.712 36.7164L312.669 37.1334L313.006 35.5509L311.529 34.8905L310.712 36.7164ZM293.437 117.763L292.623 119.59L294.878 120.594L295.393 118.18L293.437 117.763ZM272.038 108.237L270.081 107.822L269.745 109.405L271.224 110.064L272.038 108.237ZM289.242 27.1187L290.058 25.2929L287.799 24.283L287.286 26.7038L289.242 27.1187ZM314.444 9.355L310.747 26.7019L314.659 27.5356L318.356 10.1887L314.444 9.355ZM313.517 25.2916L292.117 15.7651L290.491 19.4193L311.89 28.9459L313.517 25.2916ZM293.26 18.0091L296.957 0.662176L293.045 -0.17156L289.348 17.1753L293.26 18.0091ZM294.187 2.07243L315.587 11.599L317.213 7.94475L295.814 -1.58181L294.187 2.07243ZM308.756 36.2995L291.481 117.346L295.393 118.18L312.669 37.1334L308.756 36.2995ZM294.25 115.936L272.851 106.41L271.224 110.064L292.623 119.59L294.25 115.936ZM273.994 108.652L291.199 27.5337L287.286 26.7038L270.081 107.822L273.994 108.652ZM288.426 28.9446L309.896 38.5423L311.529 34.8905L290.058 25.2929L288.426 28.9446ZM301.613 115.488L299.657 115.068L299.194 117.222L301.383 117.475L301.613 115.488ZM304.03 104.255L304.26 102.269L302.456 102.059L302.074 103.835L304.03 104.255ZM311.992 105.18L311.762 107.166L313.57 107.376L313.949 105.595L311.992 105.18ZM331.116 15.175L333.073 15.5907L333.71 12.5917L330.709 13.217L331.116 15.175ZM322.585 16.9523L320.629 16.5341L319.987 19.5365L322.993 18.9103L322.585 16.9523ZM325.216 4.65312L324.804 2.69595L323.532 2.96355L323.26 4.23483L325.216 4.65312ZM345.833 0.316402L346.062 -1.67039L345.739 -1.7077L345.421 -1.64077L345.833 0.316402ZM365.526 2.5914L367.484 3.0003L367.931 0.856005L365.755 0.604614L365.526 2.5914ZM363.18 13.8242L362.951 15.8111L364.764 16.0197L365.137 14.2331L363.18 13.8242ZM355.146 12.9L355.375 10.9131L353.568 10.7052L353.19 12.4843L355.146 12.9ZM336.022 102.905L334.066 102.489L333.428 105.488L336.43 104.863L336.022 102.905ZM344.553 101.127L346.511 101.537L347.137 98.5462L344.145 99.1694L344.553 101.127ZM341.994 113.355L342.411 115.312L343.685 115.04L343.951 113.765L341.994 113.355ZM321.305 117.763L321.076 119.75L321.402 119.788L321.722 119.719L321.305 117.763ZM303.568 115.909L305.985 104.676L302.074 103.835L299.657 115.068L303.568 115.909ZM303.799 106.242L311.762 107.166L312.223 103.193L304.26 102.269L303.799 106.242ZM313.949 105.595L333.073 15.5907L329.16 14.7593L310.036 104.764L313.949 105.595ZM330.709 13.217L322.177 14.9944L322.993 18.9103L331.524 17.133L330.709 13.217ZM324.541 17.3706L327.171 5.07141L323.26 4.23483L320.629 16.5341L324.541 17.3706ZM325.627 6.61029L346.245 2.27357L345.421 -1.64077L324.804 2.69595L325.627 6.61029ZM345.603 2.30319L365.296 4.57819L365.755 0.604614L346.062 -1.67039L345.603 2.30319ZM363.568 2.1825L361.222 13.4153L365.137 14.2331L367.484 3.0003L363.568 2.1825ZM363.408 11.8373L355.375 10.9131L354.918 14.8869L362.951 15.8111L363.408 11.8373ZM353.19 12.4843L334.066 102.489L337.978 103.32L357.102 13.3157L353.19 12.4843ZM336.43 104.863L344.961 103.085L344.145 99.1694L335.614 100.947L336.43 104.863ZM342.596 100.718L340.036 112.946L343.951 113.765L346.511 101.537L342.596 100.718ZM341.577 111.399L320.889 115.807L321.722 119.719L342.411 115.312L341.577 111.399ZM321.535 115.776L301.842 113.501L301.383 117.475L321.076 119.75L321.535 115.776ZM430.79 36.7164L432.746 37.132L433.082 35.5524L431.608 34.8915L430.79 36.7164ZM415.505 108.663L415.919 110.62L417.191 110.35L417.461 109.079L415.505 108.663ZM372.564 117.763L371.753 119.591L372.345 119.854L372.979 119.72L372.564 117.763ZM351.094 108.237L349.137 107.821L348.8 109.407L350.283 110.065L351.094 108.237ZM366.379 36.2898L365.962 34.3338L364.692 34.6045L364.423 35.8742L366.379 36.2898ZM409.391 27.1187L410.209 25.2939L409.613 25.0264L408.974 25.1627L409.391 27.1187ZM375.123 105.535L373.167 105.119L372.524 108.143L375.546 107.49L375.123 105.535ZM393.537 101.554L393.959 103.509L395.224 103.235L395.493 101.97L393.537 101.554ZM406.76 39.418L408.716 39.8343L409.357 36.8218L406.345 37.4616L406.76 39.418ZM388.347 43.3281L387.931 41.3717L386.661 41.6416L386.391 42.9123L388.347 43.3281ZM428.833 36.3008L413.548 108.248L417.461 109.079L432.746 37.132L428.833 36.3008ZM415.09 106.707L372.149 115.807L372.979 119.72L415.919 110.62L415.09 106.707ZM373.375 115.935L351.905 106.409L350.283 110.065L371.753 119.591L373.375 115.935ZM353.05 108.652L368.335 36.7055L364.423 35.8742L349.137 107.821L353.05 108.652ZM366.796 38.2459L409.808 29.0748L408.974 25.1627L365.962 34.3338L366.796 38.2459ZM408.572 28.9436L429.971 38.5413L431.608 34.8915L410.209 25.2939L408.572 28.9436ZM375.546 107.49L393.959 103.509L393.114 99.5991L374.701 103.58L375.546 107.49ZM395.493 101.97L408.716 39.8343L404.804 39.0017L391.581 101.138L395.493 101.97ZM406.345 37.4616L387.931 41.3717L388.762 45.2845L407.176 41.3743L406.345 37.4616ZM386.391 42.9123L373.167 105.119L377.08 105.951L390.303 43.744L386.391 42.9123ZM463.848 43.3281L463.433 41.3717L462.163 41.6415L461.892 42.9115L463.848 43.3281ZM447.995 117.763L447.181 119.59L449.436 120.594L449.951 118.18L447.995 117.763ZM426.595 108.237L424.639 107.82L424.302 109.405L425.782 110.064L426.595 108.237ZM443.871 27.1187L444.686 25.2923L442.43 24.2854L441.915 26.7021L443.871 27.1187ZM457.095 33.0195L456.28 34.8459L456.874 35.111L457.51 34.9759L457.095 33.0195ZM484.892 27.1187L485.711 25.2939L485.115 25.0268L484.477 25.1623L484.892 27.1187ZM506.291 36.7164L508.248 37.1317L508.583 35.5523L507.11 34.8915L506.291 36.7164ZM489.087 117.763L488.276 119.591L490.531 120.592L491.043 118.179L489.087 117.763ZM467.616 108.237L465.66 107.82L465.323 109.407L466.805 110.065L467.616 108.237ZM482.262 39.418L484.218 39.8343L484.859 36.8218L481.846 37.4616L482.262 39.418ZM461.892 42.9115L446.038 117.347L449.951 118.18L465.805 43.7448L461.892 42.9115ZM448.808 115.936L427.409 106.41L425.782 110.064L447.181 119.59L448.808 115.936ZM428.551 108.653L445.827 27.5353L441.915 26.7021L424.639 107.82L428.551 108.653ZM443.056 28.9452L456.28 34.8459L457.91 31.1931L444.686 25.2923L443.056 28.9452ZM457.51 34.9759L485.308 29.0752L484.477 25.1623L456.679 31.0631L457.51 34.9759ZM484.074 28.9436L505.473 38.5413L507.11 34.8915L485.711 25.2939L484.074 28.9436ZM504.335 36.3011L487.13 117.348L491.043 118.179L508.248 37.1317L504.335 36.3011ZM489.898 115.935L468.428 106.409L466.805 110.065L488.276 119.591L489.898 115.935ZM469.573 108.653L484.218 39.8343L480.306 39.0017L465.66 107.82L469.573 108.653ZM481.846 37.4616L463.433 41.3717L464.264 45.2845L482.677 41.3743L481.846 37.4616ZM582.575 9.77187L584.531 10.1887L584.869 8.60381L583.388 7.94475L582.575 9.77187ZM578.878 27.1187L578.065 28.9459L580.32 29.9497L580.834 27.5356L578.878 27.1187ZM557.479 17.5922L555.523 17.1753L555.185 18.7602L556.666 19.4193L557.479 17.5922ZM561.176 0.245308L561.989 -1.58181L559.734 -2.5857L559.22 -0.17156L561.176 0.245308ZM576.888 36.7164L578.844 37.1334L579.181 35.5509L577.704 34.8905L576.888 36.7164ZM559.612 117.763L558.798 119.59L561.053 120.594L561.568 118.18L559.612 117.763ZM538.213 108.237L536.256 107.822L535.92 109.405L537.399 110.064L538.213 108.237ZM555.417 27.1187L556.233 25.2929L553.974 24.283L553.461 26.7038L555.417 27.1187ZM580.619 9.355L576.922 26.7019L580.834 27.5356L584.531 10.1887L580.619 9.355ZM579.692 25.2916L558.292 15.7651L556.666 19.4193L578.065 28.9459L579.692 25.2916ZM559.435 18.0091L563.132 0.662176L559.22 -0.17156L555.523 17.1753L559.435 18.0091ZM560.362 2.07243L581.762 11.599L583.388 7.94475L561.989 -1.58181L560.362 2.07243ZM574.931 36.2995L557.656 117.346L561.568 118.18L578.844 37.1334L574.931 36.2995ZM560.425 115.936L539.026 106.41L537.399 110.064L558.798 119.59L560.425 115.936ZM540.169 108.652L557.374 27.5337L553.461 26.7038L536.256 107.822L540.169 108.652ZM554.601 28.9446L576.071 38.5423L577.704 34.8905L556.233 25.2929L554.601 28.9446ZM609.875 43.3281L609.46 41.3717L608.189 41.6415L607.919 42.9115L609.875 43.3281ZM594.021 117.763L593.208 119.59L595.463 120.594L595.977 118.18L594.021 117.763ZM572.622 108.237L570.666 107.82L570.328 109.405L571.808 110.064L572.622 108.237ZM589.898 27.1187L590.713 25.2923L588.456 24.2854L587.942 26.7021L589.898 27.1187ZM603.121 33.0195L602.306 34.8459L602.9 35.111L603.536 34.9759L603.121 33.0195ZM630.919 27.1187L631.737 25.2939L631.142 25.0268L630.503 25.1623L630.919 27.1187ZM652.318 36.7164L654.274 37.1317L654.61 35.5523L653.136 34.8915L652.318 36.7164ZM635.113 117.763L634.302 119.591L636.557 120.592L637.07 118.179L635.113 117.763ZM613.643 108.237L611.687 107.82L611.349 109.407L612.832 110.065L613.643 108.237ZM628.288 39.418L630.245 39.8343L630.886 36.8218L627.873 37.4616L628.288 39.418ZM607.919 42.9115L592.065 117.347L595.977 118.18L611.831 43.7448L607.919 42.9115ZM594.835 115.936L573.435 106.41L571.808 110.064L593.208 119.59L594.835 115.936ZM574.578 108.653L591.854 27.5353L587.942 26.7021L570.666 107.82L574.578 108.653ZM589.083 28.9452L602.306 34.8459L603.936 31.1931L590.713 25.2923L589.083 28.9452ZM603.536 34.9759L631.334 29.0752L630.503 25.1623L602.706 31.0631L603.536 34.9759ZM630.1 28.9436L651.5 38.5413L653.136 34.8915L631.737 25.2939L630.1 28.9436ZM650.362 36.3011L633.157 117.348L637.07 118.179L654.274 37.1317L650.362 36.3011ZM635.924 115.935L614.454 106.409L612.832 110.065L634.302 119.591L635.924 115.935ZM615.599 108.653L630.245 39.8343L626.332 39.0017L611.687 107.82L615.599 108.653ZM627.873 37.4616L609.46 41.3717L610.29 45.2845L628.704 41.3743L627.873 37.4616ZM725.829 36.7164L727.785 37.1312L728.12 35.5521L726.647 34.8915L725.829 36.7164ZM721.066 59.182L721.48 61.1387L722.752 60.8694L723.022 59.5969L721.066 59.182ZM696.538 64.3719L694.581 63.9593L693.948 66.9643L696.952 66.3286L696.538 64.3719ZM701.799 39.418L703.756 39.8306L704.391 36.821L701.383 37.4619L701.799 39.418ZM685.448 42.9016L685.031 40.9455L683.761 41.216L683.491 42.4863L685.448 42.9016ZM672.153 105.535L670.197 105.12L669.557 108.133L672.57 107.491L672.153 105.535ZM688.505 102.052L688.921 104.008L690.194 103.737L690.462 102.464L688.505 102.052ZM692.699 82.1453L692.286 80.1884L691.011 80.4575L690.742 81.7329L692.699 82.1453ZM717.298 76.9555L719.254 77.371L719.893 74.3639L716.885 74.9986L717.298 76.9555ZM710.473 109.09L710.887 111.046L712.159 110.777L712.429 109.505L710.473 109.09ZM669.523 117.763L668.709 119.59L669.302 119.854L669.937 119.72L669.523 117.763ZM648.123 108.237L646.167 107.822L645.831 109.405L647.31 110.064L648.123 108.237ZM665.328 27.1187L666.148 25.2945L663.886 24.278L663.372 26.7038L665.328 27.1187ZM677.983 32.8062L677.163 34.6305L677.762 34.8995L678.403 34.7615L677.983 32.8062ZM704.43 27.1187L705.248 25.2939L704.65 25.0256L704.009 25.1634L704.43 27.1187ZM723.872 36.3016L719.109 58.7672L723.022 59.5969L727.785 37.1312L723.872 36.3016ZM720.652 57.2253L696.124 62.4152L696.952 66.3286L721.48 61.1387L720.652 57.2253ZM698.495 64.7845L703.756 39.8306L699.842 39.0054L694.581 63.9593L698.495 64.7845ZM701.383 37.4619L685.031 40.9455L685.864 44.8577L702.216 41.3741L701.383 37.4619ZM683.491 42.4863L670.197 105.12L674.11 105.95L687.404 43.3168L683.491 42.4863ZM672.57 107.491L688.921 104.008L688.088 100.095L671.736 103.579L672.57 107.491ZM690.462 102.464L694.656 82.5577L690.742 81.7329L686.548 101.639L690.462 102.464ZM693.112 84.1022L717.711 78.9124L716.885 74.9986L692.286 80.1884L693.112 84.1022ZM715.341 76.54L708.516 108.674L712.429 109.505L719.254 77.371L715.341 76.54ZM710.058 107.133L669.108 115.807L669.937 119.72L710.887 111.046L710.058 107.133ZM670.336 115.936L648.937 106.41L647.31 110.064L668.709 119.59L670.336 115.936ZM650.08 108.652L667.285 27.5337L663.372 26.7038L646.167 107.822L650.08 108.652ZM664.508 28.943L677.163 34.6305L678.803 30.982L666.148 25.2945L664.508 28.943ZM678.403 34.7615L704.85 29.074L704.009 25.1634L677.562 30.8509L678.403 34.7615ZM703.611 28.9436L725.01 38.5413L726.647 34.8915L705.248 25.2939L703.611 28.9436ZM749.574 94.1602L751.529 94.584L751.873 92.995L750.388 92.3333L749.574 94.1602ZM744.456 117.763L743.642 119.59L745.889 120.591L746.41 118.187L744.456 117.763ZM723.056 108.237L721.099 107.825L720.767 109.407L722.243 110.064L723.056 108.237ZM728.033 84.5625L728.847 82.7356L726.585 81.7279L726.076 84.1511L728.033 84.5625ZM747.62 93.7363L742.501 117.339L746.41 118.187L751.529 94.584L747.62 93.7363ZM745.269 115.936L723.87 106.41L722.243 110.064L743.642 119.59L745.269 115.936ZM725.013 108.648L729.99 84.9739L726.076 84.1511L721.099 107.825L725.013 108.648ZM727.219 86.3894L748.76 95.987L750.388 92.3333L728.847 82.7356L727.219 86.3894Z" fill="white" mask="url(#path-1-outside-1_2_3)"/>
<defs>
<linearGradient id="paint0_linear_2_3" x1="509" y1="-60" x2="523.346" y2="197.747" gradientUnits="userSpaceOnUse">
<stop stop-color="#0066FF"/>
<stop offset="1" stop-color="#00CFFD"/>
</linearGradient>
</defs>
</svg>
